<svg data-v-423bf9ae="" xmlns="http://www.w3.org/2000/svg" viewBox="0 0 246 90" class="iconLeftSlogan"><!----><!----><!----><g data-v-423bf9ae="" id="65270e73-d31a-4bba-8f78-1bbed9a83446" fill="black" transform="matrix(5.791505450303629,0,0,5.791505450303629,105.13513959361485,-20.849419545609223)"><path d="M4.20 13.96C5.99 13.96 7.56 12.59 7.56 10.22C7.56 7.83 5.99 6.47 4.20 6.47C2.41 6.47 0.84 7.83 0.84 10.22C0.84 12.59 2.41 13.96 4.20 13.96ZM4.20 13.01C2.90 13.01 2.03 11.89 2.03 10.22C2.03 8.55 2.90 7.42 4.20 7.42C5.50 7.42 6.37 8.55 6.37 10.22C6.37 11.89 5.50 13.01 4.20 13.01ZM9.88 13.78L11.03 13.78L11.03 11.83L12.64 10.16L15.15 13.78L16.44 13.78L13.36 9.46L16.07 6.64L14.76 6.64L11.09 10.46L11.03 10.46L11.03 3.60L9.88 3.60ZM21.42 13.96C22.51 13.96 23.37 13.57 24.04 13.12L23.63 12.35C23.00 12.77 22.36 13.02 21.56 13.02C20.08 13.02 19.01 12.03 18.96 10.49L24.28 10.49C24.30 10.30 24.32 10.05 24.32 9.81C24.32 7.80 23.17 6.47 21.22 6.47C19.46 6.47 17.77 7.90 17.77 10.22C17.77 12.56 19.40 13.96 21.42 13.96ZM18.94 9.65C19.12 8.22 20.13 7.38 21.24 7.38C22.50 7.38 23.25 8.19 23.25 9.65Z"></path></g><!----><g data-v-423bf9ae="" id="dbc647e9-fc83-4496-b649-df78f6d1cd62" transform="matrix(2.8125,0,0,2.8125,0,0)" stroke="none" fill="black"><path d="M16 32c8.837 0 16-7.163 16-16S24.837 0 16 0 0 7.163 0 16s7.163 16 16 16zM14.817 6.421h2v8.886h8.887v2H14.817V6.421zm-5.959.437h2v14.283h14.283v2H8.858V6.858z"></path></g><!----><g data-v-423bf9ae="" id="41504afc-2917-4860-a069-6cdca614f9a3" fill="black" transform="matrix(0.9553669415438398,0,0,0.9553669415438398,108.80579109588618,55.825047086532486)"><path d="M3.88 13.94C6.08 13.94 6.78 12.59 6.78 10.89L6.78 4.52L2.00 4.52L2.00 5.22L5.95 5.22L5.95 10.82C5.95 12.43 5.32 13.20 3.86 13.20C3.11 13.20 2.38 12.80 1.85 11.91L1.25 12.40C1.82 13.45 2.83 13.94 3.88 13.94ZM15.97 13.78L16.81 13.78L17.82 10.71L21.36 10.71L22.36 13.78L23.23 13.78L20.05 4.54L19.15 4.54ZM18.07 10.02L18.59 8.41C18.94 7.34 19.25 6.37 19.57 5.25L19.63 5.25C19.94 6.37 20.24 7.34 20.61 8.41L21.13 10.02ZM32.24 13.78L37.76 13.78L37.76 13.06L35.42 13.06L35.42 5.24L37.76 5.24L37.76 4.54L32.24 4.54L32.24 5.24L34.58 5.24L34.58 13.06L32.24 13.06ZM49.98 13.78L50.82 13.78L50.82 10.40L53.96 4.54L53.10 4.54L51.62 7.45C51.25 8.16 50.85 8.90 50.46 9.65L50.40 9.65C49.99 8.90 49.64 8.19 49.27 7.49L47.71 4.54L46.84 4.54L49.98 10.40ZM63.32 13.78L69.01 13.78L69.01 13.06L64.16 13.06L64.16 9.25L68.12 9.25L68.12 8.53L64.16 8.53L64.16 5.24L68.87 5.24L68.87 4.54L63.32 4.54ZM77.95 13.78L78.82 13.78L80.35 11.05C80.58 10.61 80.84 10.15 81.12 9.59L81.17 9.59L82.01 11.06L83.55 13.78L84.46 13.78L81.68 9.03L84.27 4.54L83.40 4.54L81.97 7.13C81.73 7.55 81.56 7.91 81.30 8.41L81.24 8.41C80.95 7.91 80.74 7.55 80.49 7.13L79.04 4.54L78.13 4.54L80.72 8.99ZM93.86 13.78L99.75 13.78L99.75 13.09L97.29 13.09L97.29 4.54L96.68 4.54C96.15 4.80 95.47 5.03 94.56 5.15L94.56 5.70L96.47 5.70L96.47 13.09L93.86 13.09ZM112.00 13.94C113.96 13.94 115.12 12.17 115.12 9.13C115.12 6.05 113.96 4.37 112.00 4.37C110.04 4.37 108.88 6.05 108.88 9.13C108.88 12.17 110.04 13.94 112.00 13.94ZM109.97 11.58C109.77 10.95 109.66 10.11 109.66 9.13C109.66 6.36 110.61 5.04 112.00 5.04C112.64 5.04 113.22 5.33 113.61 5.96ZM112.00 13.27C111.30 13.27 110.71 12.92 110.29 12.21L113.97 6.54C114.20 7.20 114.34 8.06 114.34 9.13C114.34 11.87 113.39 13.27 112.00 13.27Z"></path></g></svg>